<svg  version="1.1" xmlns="http://www.w3.org/2000/svg" xmlns:xlink="http://www.w3.org/1999/xlink">
<symbol id="decoration" viewBox="-259.4 -19.7 40.2 62.4"><g>
	<path d="M-244.2,18.3c-0.3,1-0.2,2.2,0,3.6c0.5,2.6,1.7,6,2.4,9.7h5.1c0.7-3.6,1.9-7,2.5-9.7c0.3-1.4,0.3-2.7,0-3.6
		c-0.3-0.9-0.9-1.6-2-2.3h-6C-243.4,16.7-244,17.4-244.2,18.3z"/>
	<path d="M-232.4,38.3h-13.8c-1.3,0-2.3,1-2.3,2.2v2.2h2.3h13.8h2.3v-2.2C-230.1,39.3-231.1,38.3-232.4,38.3z"/>
	<path d="M-225.3-17.4H-237c0-1.2-1-2.2-2.3-2.2c-1.3,0-2.3,1-2.3,2.2h-11.7l-6.1,25.5c0.8-0.5,1.6-1,2.6-1c1.4,0,2.2,0.8,2.9,1.4
		c0.7,0.6,1.2,0.8,1.4,0.8c0.3,0,0.8-0.3,1.5-0.8c0.7-0.5,1.6-1.4,2.9-1.4c1.3,0,2.2,0.8,2.9,1.4c0.7,0.5,1.2,0.8,1.5,0.8
		c0.1,0,0.3-0.1,0.6-0.2c0.2-0.1,0.5-0.4,0.9-0.6c0.5-0.4,1.1-1,2-1.2c0.3-0.1,0.6-0.1,0.9-0.1c1.3,0,2.2,0.8,2.9,1.4
		c0.7,0.5,1.2,0.8,1.5,0.8c0.3,0,0.8-0.3,1.4-0.8c0.7-0.6,1.6-1.4,2.9-1.4c1.4,0,2.2,0.8,2.9,1.4c0.3,0.3,0.6,0.5,0.9,0.6
		c0.2,0.1,0.4,0.2,0.6,0.2c0.3,0,0.8-0.3,1.4-0.9c0.7-0.6,1.6-1.4,2.9-1.4c1,0,1.8,0.5,2.6,1L-225.3-17.4z"/>
	<path d="M-235.9,33.8h-6.9c-0.7,0-1.1,0.5-1.1,1.1c0,0.6,0.5,1.1,1.1,1.1h6.9c0.7,0,1.1-0.5,1.1-1.1
		C-234.7,34.3-235.2,33.8-235.9,33.8L-235.9,33.8z"/>
	<path d="M-239.3,9.3c-0.1,0-0.3,0.1-0.6,0.2c-0.2,0.1-0.4,0.3-0.6,0.4v3.7h2.3V10C-238.7,9.6-239.1,9.3-239.3,9.3z"/>
</g>
</symbol>
<symbol id="toy" viewBox="226 226.2 60 59.6"><path class="st0" d="M226,269.9l27.4,15.9v-23.3L226,246.5V269.9z M277.3,238.6v2.5c0,1.8-3.5,3.3-7.7,3.3c-4.3,0-7.7-1.5-7.7-3.3
	V237h0c0.3,1.7,3.6,3.1,7.7,3.1c4.3,0,7.7-1.5,7.7-3.3c0-1.8-3.5-3.3-7.7-3.3c-0.3,0-0.7,0-1,0l-5-2.9v3.1c0,1.8-3.5,3.3-7.7,3.3
	c-2.7,0-5-0.6-6.4-1.5c-0.2-0.2-0.4-0.4-0.7-0.6c-0.4-0.4-0.6-0.8-0.6-1.2v-3l-4.8,2.8c-0.3,0-0.7,0-1.1,0c-4.3,0-7.7,1.5-7.7,3.3
	c0,1.8,3.5,3.3,7.7,3.3c4.1,0,7.4-1.4,7.7-3.1h0v4.1c0,1.8-3.5,3.3-7.7,3.3c-4.3,0-7.7-1.5-7.7-3.3v-2.4l-6,3.5l27.5,16l27.4-15.9
	L277.3,238.6z M263.7,248.8c0,1.8-3.5,3.3-7.7,3.3c-4.3,0-7.7-1.5-7.7-3.3v-4.1h0c0.3,1.7,3.6,3.1,7.7,3.1c4.1,0,7.4-1.4,7.7-3.1h0
	V248.8L263.7,248.8z M258.6,262.7v23.1l27.4-15.9v-23.1L258.6,262.7z M255.9,232.8c4.3,0,7.7-1.5,7.7-3.3c0-1.8-3.5-3.3-7.7-3.3
	c-4.3,0-7.7,1.5-7.7,3.3C248.2,231.3,251.6,232.8,255.9,232.8"/>
</symbol>
<symbol id="arrow-left" viewBox="0 0 50 26"><polygon points="50,11 7.7,11 15.8,2.8 13,0 0,13 0,13 0,13 13,26 15.8,23.2 7.7,15 50,15 "/>
</symbol>
<symbol id="arrow-right" viewBox="0 0 50 26"><polygon points="0,11 42.3,11 34.2,2.8 37,0 50,13 50,13 50,13 37,26 34.2,23.2 42.3,15 0,15 "/>
</symbol>
<symbol id="icon-phone" viewBox="264.2 371 20.3 20">
</symbol>

</svg>