<svg id="Capa_1" data-name="Capa 1" xmlns="http://www.w3.org/2000/svg" viewBox="0 0 17.01 17.01"><defs><style>.cls-1{fill:#fff;}</style></defs><title>instagram</title><path class="cls-1" d="M602,178.88H591.55a3.28,3.28,0,0,0-3.28,3.28V192.6a3.28,3.28,0,0,0,3.28,3.28H602a3.29,3.29,0,0,0,3.29-3.28V182.16A3.29,3.29,0,0,0,602,178.88Zm.94,2h.38v2.88h-2.88v-2.88Zm-8.59,4.8a3,3,0,1,1-.56,1.74A3,3,0,0,1,594.34,185.64Zm9.28,7a1.63,1.63,0,0,1-1.63,1.63H591.55a1.64,1.64,0,0,1-1.63-1.63v-7h2.54a4.54,4.54,0,0,0-.34,1.74,4.65,4.65,0,0,0,9.3,0,4.54,4.54,0,0,0-.34-1.74h2.54Z" transform="translate(-588.27 -178.88)"/></svg>