<svg width="88" height="88" viewBox="0 0 88 88" fill="none" xmlns="http://www.w3.org/2000/svg">
<path d="M82.969 83.4939L79.076 60.7028C78.6564 58.2472 76.9145 56.2746 74.5294 55.5552L64.0292 52.387C63.8118 49.8202 62.7594 47.3987 61.008 45.4819C59.607 43.9488 57.845 42.8325 55.9026 42.2165C56.235 41.8476 56.5432 41.48 56.8259 41.1204C59.3229 37.9447 60.6598 34.446 61.0001 32.0585H61.8101C63.917 32.0585 65.6311 30.3445 65.6311 28.2375V26.2788C65.6311 24.8727 64.8401 23.5986 63.6506 22.9374L63.6657 12.3709C63.6657 11.6592 63.0887 11.0822 62.377 11.0822C61.6652 11.0822 61.0884 11.659 61.0884 12.3709L61.0733 23.5149C60.5714 23.602 59.9726 23.7526 59.36 24.0106C59.2973 24.0335 59.2363 24.0599 59.1785 24.0917C59.0402 24.1548 58.9016 24.2213 58.7636 24.2963V13.9112C58.7636 11.0421 56.4296 8.70805 53.5605 8.70805H50.0035C48.7767 8.70805 47.5782 9.1355 46.6284 9.91203L46.2793 10.1973C45.6382 10.7216 44.829 11.0103 44.0008 11.0103C43.1725 11.0103 42.3631 10.7216 41.7221 10.1973L41.3731 9.91203C40.4234 9.13567 39.2249 8.70805 37.998 8.70805H34.4407C31.5716 8.70805 29.2376 11.0421 29.2376 13.9112V24.2963C29.0996 24.2213 28.961 24.1548 28.8227 24.0917C28.7649 24.0599 28.7041 24.0335 28.6413 24.0106C28.0288 23.7526 27.4298 23.602 26.9281 23.5149V10.1449C26.9281 5.97214 30.323 2.57727 34.4957 2.57727H53.5053C57.6782 2.57727 61.0729 5.97214 61.0729 10.1449V12.1706C61.0729 12.8824 61.6499 13.4594 62.3615 13.4594C63.0731 13.4594 63.6502 12.8825 63.6502 12.1706V10.1449C63.6502 4.55108 59.0991 0 53.5053 0H34.4957C28.9017 0 24.3508 4.55108 24.3508 10.1449V22.9376C23.1613 23.5988 22.3703 24.8727 22.3703 26.279V28.2377C22.3703 30.3447 24.0844 32.0586 26.1913 32.0586H27.0013C27.3414 34.4462 28.6785 37.9448 31.1755 41.1206C31.4579 41.4798 31.7659 41.8471 32.0979 42.2156C27.6326 43.6339 24.3763 47.6486 23.9722 52.387L13.4716 55.5552C11.0865 56.2746 9.34441 58.2472 8.92504 60.7028L7.34413 69.9581C7.22434 70.6597 5.61524 78.6808 6.31666 78.8006C7.01791 78.9207 8.62968 77.738 9.88462 70.3919L11.4655 61.1366C11.7192 59.6509 12.7731 58.4578 14.216 58.0226L23.9278 55.0923V57.6414C21.7017 58.0511 19.8075 59.5803 19.0273 61.699C18.8202 62.2614 18.6915 62.8502 18.6447 63.449L17.7061 75.4966C17.6353 76.4041 17.9493 77.3078 18.5672 77.9756C19.1851 78.6435 20.0615 79.0267 20.9716 79.0267H22.5783C23.29 79.0267 23.867 78.4499 23.867 77.738C23.867 77.0261 23.29 76.4495 22.5783 76.4495H20.9716C20.7775 76.4495 20.5909 76.368 20.4591 76.2254C20.3274 76.083 20.2605 75.8905 20.2757 75.6972L21.2143 63.6494C21.2426 63.2866 21.3205 62.93 21.446 62.5895C21.9887 61.1157 23.4545 60.1176 25.0937 60.1061L25.3059 60.1045C25.3159 60.1043 25.3257 60.1043 25.3355 60.1043C26.9286 60.1043 28.3388 61.0077 28.9337 62.4121C29.1006 62.8059 29.202 63.2222 29.2353 63.6494L30.1743 75.6974C30.1892 75.8905 30.1224 76.083 29.9907 76.2255C29.8591 76.3678 29.6722 76.4495 29.4782 76.4495H27.8715C27.1598 76.4495 26.5828 77.0263 26.5828 77.738C26.5828 78.4498 27.1598 79.0267 27.8715 79.0267H29.4782C30.3883 79.0267 31.2648 78.6436 31.8826 77.9756C32.5006 77.3075 32.8146 76.4039 32.7438 75.4968L31.8049 63.449C31.7499 62.744 31.5823 62.0567 31.3068 61.4065C30.4579 59.4029 28.6427 58.0099 26.5049 57.633V54.3147L30.9348 52.9781C31.3379 53.827 32.1366 55.6614 33.7187 59.6157C35.3132 63.6056 37.2951 68.7197 39.1958 73.6914C39.2094 73.7332 39.2251 73.7739 39.2426 73.8138C40.511 77.1329 41.7415 80.3837 42.7939 83.188C42.9826 83.6909 43.4633 84.024 44.0004 84.024C44.5375 84.024 45.0183 83.6909 45.207 83.188C46.2592 80.3837 47.4897 77.1329 48.7583 73.8138C48.776 73.7739 48.7914 73.733 48.805 73.6914C50.7044 68.7227 52.6853 63.6118 54.2791 59.6231C55.8632 55.6636 56.6626 53.8276 57.0658 52.9781L61.4958 54.3147V61.9262C58.4264 62.5225 56.1015 65.2295 56.1015 68.4707C56.1015 72.1473 59.0926 75.1386 62.7693 75.1386C66.4461 75.1386 69.4372 72.1475 69.4372 68.4707C69.4372 65.2401 67.1276 62.5396 64.073 61.9317V55.0925L73.785 58.0228C75.2279 58.458 76.2816 59.6511 76.5355 61.1368L80.4285 83.9279C80.4931 84.3059 80.3925 84.6754 80.1452 84.9685C79.8981 85.2613 79.5507 85.4229 79.1673 85.4229H8.8336C8.45015 85.4229 8.10296 85.2615 7.85563 84.9685C7.60848 84.6754 7.50776 84.3061 7.57238 83.9279L8.85715 76.4063C8.97695 75.7048 8.50532 75.0391 7.8039 74.9193C7.10265 74.799 6.43663 75.2711 6.31666 75.9725L5.0319 83.4941C4.84026 84.6168 5.15152 85.76 5.88577 86.6305C6.62037 87.5009 7.69476 88 8.8336 88H79.1673C80.3061 88 81.3807 87.5009 82.1151 86.6303C82.8493 85.7598 83.1606 84.6166 82.969 83.4939ZM61.0884 26.1403C61.7751 25.9691 62.3263 25.9722 62.3324 25.9724C62.5545 25.9753 62.7704 25.9234 62.9622 25.8228C63.0196 25.9657 63.0535 26.1192 63.0535 26.279V28.2377C63.0535 28.9235 62.4956 29.4814 61.8098 29.4814H61.0884V26.1403ZM26.9124 29.4814H26.1911C25.5053 29.4814 24.9474 28.9235 24.9474 28.2377V26.279C24.9474 26.1192 24.9814 25.9657 25.0387 25.823C25.2303 25.9236 25.4462 25.9755 25.6684 25.9724C25.6782 25.9741 26.2279 25.971 26.9124 26.141V29.4814ZM29.4897 30.9263V27.5407C29.8802 27.6578 30.3073 27.6418 30.7016 27.4773C31.3779 27.1951 31.8148 26.5397 31.8148 25.8074V13.9112C31.8148 12.4633 32.9929 11.2853 34.4407 11.2853H37.9977C38.6316 11.2853 39.2508 11.5062 39.7415 11.9073L40.0904 12.1926C41.1906 13.0922 42.5792 13.5874 44.0004 13.5874C45.4217 13.5874 46.8102 13.0921 47.9104 12.1926L48.2593 11.9073C48.7499 11.5062 49.3693 11.2853 50.0032 11.2853H53.5601C55.008 11.2853 56.186 12.4633 56.186 13.9112V25.8075C56.186 26.5397 56.6229 27.1953 57.2993 27.4775C57.5251 27.5717 57.7616 27.6174 57.996 27.6174C58.1708 27.6174 58.3442 27.5918 58.5111 27.5419V30.9263C58.5111 32.8078 57.2104 36.4616 54.7997 39.5275C54.0011 40.5431 52.9747 41.6341 51.7109 42.5877C51.6709 42.6145 51.6325 42.6436 51.5959 42.6745C49.6381 44.122 47.1206 45.231 44.0004 45.231C40.8802 45.231 38.3628 44.122 36.4048 42.6743C36.3681 42.6436 36.33 42.6145 36.2901 42.5879C35.0263 41.6341 33.9999 40.5431 33.2012 39.5275C30.7906 36.4617 29.4897 32.8078 29.4897 30.9263ZM52.4429 51.7464L44.0004 58.0566L35.5579 51.7464C36.3951 50.6823 36.8642 49.3164 36.8642 48.0975V46.0202C38.8495 47.0879 41.2185 47.8084 44.0004 47.8084C46.7824 47.8084 49.1515 47.0879 51.1367 46.0202V48.0975C51.1367 49.3164 51.6057 50.6823 52.4429 51.7464ZM33.4073 50.308C32.7191 50.0459 31.9561 50.0029 31.2344 50.1987C31.2028 50.2061 31.1719 50.2145 31.1418 50.2234L26.6897 51.5668C27.4427 47.8643 30.4491 44.9173 34.2869 44.3465V48.0975C34.2869 48.906 33.926 49.7418 33.4073 50.308ZM36.9047 60.6528C36.9023 60.6468 36.8999 60.6408 36.8977 60.6349C36.8324 60.4698 36.7679 60.3068 36.704 60.1458C36.6925 60.1165 36.681 60.0875 36.6694 60.0586C36.6069 59.901 36.5448 59.7446 36.4836 59.5908C36.4794 59.58 36.4751 59.5693 36.4708 59.5583C36.2798 59.0783 36.0957 58.6178 35.9187 58.1766C35.9058 58.1446 35.8929 58.1121 35.88 58.0803C35.8291 57.9538 35.7791 57.8292 35.7295 57.7062C35.7112 57.661 35.6932 57.6163 35.6751 57.5716C35.627 57.4523 35.5792 57.3337 35.5321 57.2177C35.5181 57.183 35.5043 57.1493 35.4904 57.1147C35.405 56.904 35.3214 56.6986 35.24 56.4984C35.218 56.4443 35.1954 56.3891 35.1736 56.3356C35.1416 56.2576 35.1105 56.1816 35.0793 56.1052C35.0456 56.0227 35.0119 55.9408 34.9789 55.8604C34.9665 55.8303 34.9536 55.7985 34.9412 55.7686C34.9313 55.7446 34.9222 55.7224 34.9124 55.6985C34.7635 55.3369 34.6221 54.996 34.4878 54.6755C34.4868 54.6729 34.4856 54.6703 34.4846 54.6678C34.4131 54.4971 34.3431 54.3304 34.2759 54.1716C34.241 54.0892 34.2066 54.0083 34.173 53.9289L41.4338 59.3557L38.3999 60.6446C38.3946 60.6468 38.3891 60.649 38.3837 60.6514L37.117 61.1896C37.0452 61.0079 36.9749 60.8298 36.9047 60.6528ZM39.9796 68.5432C39.725 67.8827 39.4686 67.2184 39.2116 66.5548C38.8098 65.5169 38.426 64.53 38.0587 63.5898L38.5396 63.3854L40.5045 65.6695L39.9796 68.5432ZM44.0253 79.017C43.9884 78.9403 43.9444 78.8679 43.8935 78.8006C43.3112 77.2614 42.5721 75.3139 41.7542 73.1711L42.9573 66.584H45.0435L46.2467 73.1711C45.3895 75.416 44.6197 77.4458 44.0253 79.017ZM45.5269 64.0069H42.474L41.0294 62.3277L44.0004 61.0656L46.9715 62.3277L45.5269 64.0069ZM48.7892 66.5548C48.5323 67.2184 48.2758 67.8827 48.0213 68.5432L47.4964 65.6693L49.4612 63.3853L49.9421 63.5896C49.5748 64.5298 49.1911 65.5169 48.7892 66.5548ZM53.7251 54.1716C53.6613 54.3221 53.595 54.4801 53.5275 54.6413C53.5187 54.6623 53.5098 54.6834 53.501 54.7045C53.4341 54.8644 53.3661 55.0277 53.2956 55.1977C53.291 55.2088 53.2861 55.2207 53.2815 55.232C53.2207 55.3786 53.1583 55.5299 53.0948 55.6841C53.083 55.7129 53.0718 55.7396 53.06 55.7686C53.0459 55.8032 53.0307 55.8398 53.0165 55.8747C52.9883 55.9434 52.9596 56.0135 52.9307 56.0837C52.8953 56.1701 52.8601 56.2562 52.8238 56.3448C52.8123 56.3729 52.8004 56.4023 52.7887 56.4307C52.699 56.6505 52.6069 56.877 52.5127 57.1098C52.4979 57.1462 52.4833 57.182 52.4685 57.2189C52.422 57.3339 52.3745 57.4513 52.3269 57.5694C52.3083 57.6156 52.2896 57.6617 52.2709 57.7084C52.2217 57.8303 52.1721 57.9537 52.1219 58.0788C52.1078 58.1137 52.0935 58.1494 52.0794 58.1845C51.9046 58.6197 51.7233 59.0736 51.5351 59.5466C51.5289 59.5623 51.5227 59.5775 51.5165 59.5934C51.4557 59.7462 51.3941 59.9015 51.3319 60.0581C51.3204 60.0873 51.3087 60.1165 51.297 60.1459C51.2328 60.3078 51.168 60.4715 51.1023 60.6377C51.1011 60.6408 51.0999 60.6439 51.0987 60.6468C51.0279 60.8259 50.9567 61.006 50.8842 61.1899L49.6163 60.6513C49.6118 60.6494 49.6073 60.6475 49.603 60.6456L46.5674 59.356L53.8282 53.9292C53.7942 54.0083 53.7598 54.0891 53.7251 54.1716ZM56.8591 50.2236L56.8551 50.2224C56.1075 49.9981 55.31 50.0352 54.5938 50.308C54.0749 49.7418 53.7141 48.906 53.7141 48.0975V44.3446C57.576 44.9139 60.5733 47.8332 61.3165 51.5683L56.8591 50.2236ZM66.86 68.4707C66.86 70.7264 65.0249 72.5613 62.7693 72.5613C60.5138 72.5613 58.6787 70.7264 58.6787 68.4707C58.6787 66.215 60.5138 64.3801 62.7693 64.3801C65.0249 64.3801 66.86 66.215 66.86 68.4707Z" fill="url(#paint0_linear)"/>
<defs>
<linearGradient id="paint0_linear" x1="44.0004" y1="0" x2="44.0004" y2="88" gradientUnits="userSpaceOnUse">
<stop stop-color="#94E6F4"/>
<stop offset="1" stop-color="#51CEE4"/>
</linearGradient>
</defs>
</svg>
