<svg width="95" height="95" viewBox="0 0 95 95" fill="none" xmlns="http://www.w3.org/2000/svg">
<path d="M37.3754 50.625C38.0956 50.625 38.68 50.0406 38.68 49.3204V35.2878C38.68 34.5677 38.0956 33.9832 37.3754 33.9832H30.3012C29.5807 33.9832 28.9966 34.5677 28.9966 35.2878V49.3204C28.9966 50.0406 29.5807 50.625 30.3012 50.625H37.3754ZM31.6058 36.5925H36.0708V48.0158H31.6058V36.5925Z" fill="url(#paint0_linear)"/>
<path d="M43.7543 50.625H50.8282C51.548 50.625 52.1328 50.0406 52.1328 49.3204V35.2878C52.1328 34.5677 51.548 33.9832 50.8282 33.9832H43.7543C43.0331 33.9832 42.4497 34.5677 42.4497 35.2878V49.3204C42.4497 50.0406 43.0331 50.625 43.7543 50.625ZM45.059 36.5925H49.5236V48.0158H45.059V36.5925Z" fill="url(#paint1_linear)"/>
<path d="M19.2683 70.8284C19.9885 70.8284 20.573 70.2453 20.573 69.5237V55.4926C20.573 54.7714 19.9885 54.1879 19.2683 54.1879H12.1938C11.4736 54.1879 10.8892 54.7714 10.8892 55.4926V69.5237C10.8892 70.2453 11.4736 70.8284 12.1938 70.8284H19.2683ZM13.4984 56.7972H17.9637V68.2191H13.4984V56.7972Z" fill="url(#paint2_linear)"/>
<path d="M75.3129 70.8284H82.3871C83.1073 70.8284 83.6917 70.2453 83.6917 69.5237V55.4926C83.6917 54.7714 83.1073 54.1879 82.3871 54.1879H75.3129C74.5924 54.1879 74.0083 54.7714 74.0083 55.4926V69.5237C74.0083 70.2453 74.5924 70.8284 75.3129 70.8284ZM76.6176 56.7972H81.0825V68.2191H76.6176V56.7972Z" fill="url(#paint3_linear)"/>
<path d="M57.2055 50.625H64.2801C65.0002 50.625 65.5847 50.0406 65.5847 49.3204V35.2878C65.5847 34.5677 65.0002 33.9832 64.2801 33.9832H57.2055C56.4854 33.9832 55.9009 34.5677 55.9009 35.2878V49.3204C55.9009 50.0406 56.4854 50.625 57.2055 50.625ZM58.5101 36.5925H62.9755V48.0158H58.5101V36.5925Z" fill="url(#paint4_linear)"/>
<path d="M45.9857 16.6895C45.9857 17.41 46.5702 17.9941 47.2903 17.9941C48.0105 17.9941 48.595 17.41 48.595 16.6895V13.9932H51.2912C52.0114 13.9932 52.5958 13.4091 52.5958 12.6886C52.5958 11.9681 52.0114 11.384 51.2912 11.384H48.595V8.68774C48.595 7.96724 48.0105 7.38312 47.2903 7.38312C46.5702 7.38312 45.9857 7.96724 45.9857 8.68774V11.384H43.2895C42.5693 11.384 41.9849 11.9681 41.9849 12.6886C41.9849 13.4091 42.5693 13.9932 43.2895 13.9932H45.9857V16.6895Z" fill="url(#paint5_linear)"/>
<path d="M90.5172 40.7367C91.2373 40.7367 91.8218 40.1523 91.8218 39.4321V34.7354C91.8218 34.0153 91.2373 33.4308 90.5172 33.4308H82.6024C81.8823 33.4308 81.2978 34.0153 81.2978 34.7354C81.2978 35.4556 81.8823 36.0401 82.6024 36.0401H89.2125V38.1275C87.0055 38.1275 71.3113 38.1275 70.372 38.1275V36.0401H83.358C84.0796 36.0401 84.6627 35.4556 84.6627 34.7354C84.6627 34.0153 84.0796 33.4308 83.358 33.4308H70.372V27.3144H72.3745C73.0954 27.3144 73.6791 26.7313 73.6791 26.0098V21.3131C73.6791 20.5933 73.0954 20.0085 72.3745 20.0085H60.7369V4.06384C60.7369 3.34369 60.1531 2.75922 59.4323 2.75922H35.1488C34.428 2.75922 33.8442 3.34369 33.8442 4.06384V20.0099H22.2062C21.4854 20.0099 20.9016 20.5933 20.9016 21.3145V26.0098C20.9016 26.7313 21.4854 27.3144 22.2062 27.3144H24.2091V33.4308H4.0639C3.34375 33.4308 2.75928 34.0153 2.75928 34.7354V39.4321C2.75928 40.1523 3.34375 40.7367 4.0639 40.7367H4.64351V49.3205C4.64351 50.0406 5.22763 50.6251 5.94813 50.6251C6.66863 50.6251 7.25276 50.0406 7.25276 49.3205V40.7367H24.2091V84.281H7.25276V48.8972C7.25276 48.1763 6.66863 47.5925 5.94813 47.5925C5.22763 47.5925 4.64351 48.1763 4.64351 48.8972V84.2799H4.0639C3.34375 84.2799 2.75928 84.8641 2.75928 85.5846V90.5171C2.75928 91.2373 3.34375 91.8217 4.0639 91.8217H90.5172C91.2373 91.8217 91.8218 91.2373 91.8218 90.5171V85.5846C91.8218 84.8641 91.2373 84.2799 90.5172 84.2799H89.9379V40.7367H90.5172ZM23.5108 22.6191H52.157C52.8772 22.6191 53.4617 22.0346 53.4617 21.3145C53.4617 20.5933 52.8772 20.0099 52.157 20.0099H36.4534V5.36847H58.1276V20.0099H51.1752C50.4547 20.0099 49.8706 20.5933 49.8706 21.3145C49.8706 22.0346 50.4547 22.6191 51.1752 22.6191H71.0699V24.7051H23.5108V22.6191ZM5.36853 36.0401H24.2091V38.1275H5.36853V36.0401ZM26.8183 27.3144H67.7627V84.2799H60.2498V63.6418C60.2498 62.9216 59.6653 62.3372 58.9452 62.3372H35.6359C34.9157 62.3372 34.3312 62.9216 34.3312 63.6418V84.2799H26.8183V27.3144ZM36.9405 84.2799V64.9464H45.9859V84.2799H36.9405ZM48.5952 64.9464H57.6406V84.2799H48.5952V64.9464ZM89.2125 89.2125H5.36853V86.8892H89.2125V89.2125ZM87.3287 84.2799H70.372V40.7367H87.3273V84.2799H87.3287Z" fill="url(#paint6_linear)"/>
<defs>
<linearGradient id="paint0_linear" x1="33.8383" y1="33.9832" x2="33.8383" y2="50.625" gradientUnits="userSpaceOnUse">
<stop stop-color="#94E6F4"/>
<stop offset="1" stop-color="#51CEE4"/>
</linearGradient>
<linearGradient id="paint1_linear" x1="47.2913" y1="33.9832" x2="47.2913" y2="50.625" gradientUnits="userSpaceOnUse">
<stop stop-color="#94E6F4"/>
<stop offset="1" stop-color="#51CEE4"/>
</linearGradient>
<linearGradient id="paint2_linear" x1="15.7311" y1="54.1879" x2="15.7311" y2="70.8284" gradientUnits="userSpaceOnUse">
<stop stop-color="#94E6F4"/>
<stop offset="1" stop-color="#51CEE4"/>
</linearGradient>
<linearGradient id="paint3_linear" x1="78.85" y1="54.1879" x2="78.85" y2="70.8284" gradientUnits="userSpaceOnUse">
<stop stop-color="#94E6F4"/>
<stop offset="1" stop-color="#51CEE4"/>
</linearGradient>
<linearGradient id="paint4_linear" x1="60.7428" y1="33.9832" x2="60.7428" y2="50.625" gradientUnits="userSpaceOnUse">
<stop stop-color="#94E6F4"/>
<stop offset="1" stop-color="#51CEE4"/>
</linearGradient>
<linearGradient id="paint5_linear" x1="47.2903" y1="7.38312" x2="47.2903" y2="17.9941" gradientUnits="userSpaceOnUse">
<stop stop-color="#94E6F4"/>
<stop offset="1" stop-color="#51CEE4"/>
</linearGradient>
<linearGradient id="paint6_linear" x1="47.2905" y1="2.75922" x2="47.2905" y2="91.8217" gradientUnits="userSpaceOnUse">
<stop stop-color="#94E6F4"/>
<stop offset="1" stop-color="#51CEE4"/>
</linearGradient>
</defs>
</svg>
