<svg width="76" height="49" viewBox="0 0 76 49" fill="none" xmlns="http://www.w3.org/2000/svg">
<path d="M73.6887 15.2547H60.7453V2.31132C60.7453 1.03478 59.7105 0 58.434 0H44.5661C43.2895 0 42.2547 1.03478 42.2547 2.31132V14H46.8774C43.8774 14 45.6008 14 46.8774 14V36C46.8774 35 46.8774 37.2765 46.8774 36H42.2547V46.6887C42.2547 47.9652 43.2895 49 44.5661 49H58.434C59.7105 49 60.7453 47.9652 60.7453 46.6887V33.7453H73.6887C74.9652 33.7453 76 32.7105 76 31.434V17.566C76 16.2895 74.9652 15.2547 73.6887 15.2547ZM71.3774 29.1224H58.434C57.1574 29.1224 56.1227 30.1572 56.1227 31.4337V44.3771H46.8774V31.4337C46.8774 30.1572 46.8774 37.5 46.8774 36V14C46.8774 12.5 46.8774 18.8423 46.8774 17.5658V4.62241H56.1227V17.5658C56.1227 18.8423 57.1574 19.8771 58.434 19.8771H71.3774V29.1224Z" fill="url(#paint0_linear)"/>
<path d="M1.73047 33V18.7812H5.92969C7.1862 18.7812 8.29948 19.0612 9.26953 19.6211C10.2461 20.181 11.0013 20.9753 11.5352 22.0039C12.069 23.0326 12.3359 24.2109 12.3359 25.5391V26.252C12.3359 27.5996 12.0658 28.7845 11.5254 29.8066C10.9915 30.8288 10.2266 31.6165 9.23047 32.1699C8.24089 32.7233 7.10482 33 5.82227 33H1.73047ZM4.20117 20.7734V31.0273H5.8125C7.10807 31.0273 8.10091 30.6237 8.79102 29.8164C9.48763 29.0026 9.84245 27.8372 9.85547 26.3203V25.5293C9.85547 23.9863 9.52018 22.8079 8.84961 21.9941C8.17904 21.1803 7.20573 20.7734 5.92969 20.7734H4.20117ZM23.1074 26.6523H17.2676V31.0273H24.0938V33H14.7969V18.7812H24.0254V20.7734H17.2676V24.6992H23.1074V26.6523ZM37.3848 33H34.9141L28.5762 22.9121V33H26.1055V18.7812H28.5762L34.9336 28.9082V18.7812H37.3848V33ZM50.2852 20.7734H45.8516V33H43.4004V20.7734H39.0059V18.7812H50.2852V20.7734Z" fill="#212E46"/>
<defs>
<linearGradient id="paint0_linear" x1="51.5001" y1="0" x2="51.5001" y2="49" gradientUnits="userSpaceOnUse">
<stop stop-color="#94E6F4"/>
<stop offset="1" stop-color="#51CEE4"/>
</linearGradient>
</defs>
</svg>
