<svg width="14" height="10" viewBox="0 0 14 10" fill="none" xmlns="http://www.w3.org/2000/svg">
<path d="M1.31251 0H12.6875C13.4113 0 14 0.560711 14 1.25001V8.74999C14 9.43929 13.4113 10 12.6875 10H1.31251C0.588748 10 1.53136e-07 9.43929 1.53136e-07 8.74999V1.25001C1.53136e-07 0.560711 0.588748 0 1.31251 0V0ZM1.31251 0.833329C1.25307 0.833329 1.19652 0.845074 1.14482 0.865586L7 5.69865L12.8552 0.865586C12.8035 0.845102 12.747 0.833329 12.6875 0.833329H1.31251ZM1.31251 9.16664H12.6875C12.9289 9.16664 13.125 8.97989 13.125 8.74997V1.74601L7.28669 6.56493C7.20422 6.63287 7.10211 6.66666 7 6.66666C6.89789 6.66666 6.79578 6.6329 6.71331 6.56493L0.874997 1.74601V8.74999C0.875026 8.97989 1.07112 9.16664 1.31251 9.16664V9.16664Z" fill="#66C6D7"/>
</svg>
