<svg width="236" height="235" viewBox="0 0 236 235" fill="none" xmlns="http://www.w3.org/2000/svg">
<path d="M30.6128 122.866C41.0866 143.402 49.0299 162.014 55.411 176.98C68.8589 208.515 76.9746 227.548 92.5569 227.548C109.085 227.548 110.893 214.628 110.893 187.208C110.893 153.293 114.216 150.535 118.228 150.535C122.24 150.535 125.562 153.293 125.562 187.208C125.562 214.628 127.37 227.548 143.899 227.548C159.481 227.548 167.597 208.515 181.045 176.98C187.426 162.014 195.369 143.391 205.843 122.866L207.072 120.46C213.577 107.819 220.912 93.4871 220.912 77.1896C220.912 38.1184 195.138 7.51123 162.235 7.51123C149.552 7.65585 137.232 11.7672 127.004 19.2685C124.389 20.958 121.341 21.8566 118.228 21.8566C115.115 21.8566 112.067 20.958 109.452 19.2685C99.2238 11.7672 86.9039 7.65585 74.2205 7.51123C41.3176 7.51123 15.5439 38.1184 15.5439 77.1896C15.5439 93.4871 22.8969 107.819 29.3843 120.464L30.6128 122.866ZM74.2205 14.8458C85.2982 14.9656 96.0608 18.5484 105 25.0922C115.828 32.2358 128.584 35.8922 141.552 35.5696C150.711 35.5168 159.802 33.9798 168.47 31.0185L166.148 24.0507C154.06 28.3418 141.047 29.333 128.449 26.9222C129.508 26.4117 130.514 25.7975 131.452 25.0885C140.393 18.5453 151.157 14.9638 162.235 14.8458C191.027 14.8458 213.577 42.2294 213.577 77.1896C213.577 91.7158 206.653 105.208 200.547 117.112L199.308 119.528C188.72 140.285 180.726 159.036 174.301 174.101C162.459 201.877 154.637 220.214 143.899 220.214C135.915 220.214 132.897 217.368 132.897 187.208C132.897 156.176 130.858 143.201 118.228 143.201C105.598 143.201 103.559 156.176 103.559 187.208C103.559 217.368 100.541 220.214 92.5569 220.214C81.8191 220.214 73.9968 201.877 62.1551 174.101C55.73 159.036 47.7354 140.285 37.1479 119.528L35.9084 117.112C29.8024 105.208 22.8785 91.7158 22.8785 77.1896C22.8785 42.2294 45.4286 14.8458 74.2205 14.8458Z" fill="#EEEEEE" fill-opacity="0.5"/>
<path d="M77.8876 29.515V22.1804C62.7527 22.1804 33.3154 33.6224 30.2129 76.9293L37.5475 77.4501C40.9067 30.2925 76.3913 29.515 77.8876 29.515Z" fill="#EEEEEE" fill-opacity="0.5"/>
<path d="M37.5475 84.5242H30.2129V91.8587H37.5475V84.5242Z" fill="#EEEEEE" fill-opacity="0.5"/>
<path d="M206.243 77.1897H198.909C198.909 77.3621 198.56 94.8513 181.254 119.081L187.225 123.342C206.027 96.993 206.243 77.9855 206.243 77.1897Z" fill="#EEEEEE" fill-opacity="0.5"/>
<path d="M148.658 75.602H132.164V59.1071C132.164 57.4803 130.845 56.1616 129.218 56.1616H111.545C109.918 56.1616 108.6 57.4803 108.6 59.1071V75.602H92.1047C90.4779 75.602 89.1592 76.9207 89.1592 78.5475V96.2205C89.1592 97.8473 90.4779 99.1661 92.1047 99.1661H108.6V115.661C108.6 117.288 109.918 118.606 111.545 118.606H129.218C130.845 118.606 132.164 117.288 132.164 115.661V99.1661H148.658C150.285 99.1661 151.604 97.8473 151.604 96.2205V78.5475C151.604 76.9207 150.285 75.602 148.658 75.602ZM145.713 93.2747H129.218C127.591 93.2747 126.273 94.5934 126.273 96.2202V112.715H114.491V96.2202C114.491 94.5934 113.172 93.2747 111.545 93.2747H95.0502V81.4927H111.545C113.172 81.4927 114.491 80.174 114.491 78.5472V62.0523H126.273V78.5472C126.273 80.174 127.591 81.4927 129.218 81.4927H145.713V93.2747Z" fill="#EEEEEE" fill-opacity="0.5"/>
</svg>
