<svg width="94" height="94" viewBox="0 0 94 94" fill="none" xmlns="http://www.w3.org/2000/svg">
<path d="M11.9101 49.137C16.1048 57.362 19.2862 64.8159 21.8418 70.8099C27.2277 83.4397 30.478 91.0625 36.7188 91.0625C43.3384 91.0625 44.0625 85.8881 44.0625 74.9062C44.0625 61.3232 45.3932 60.2188 47 60.2188C48.6068 60.2188 49.9375 61.3232 49.9375 74.9062C49.9375 85.8881 50.6616 91.0625 57.2812 91.0625C63.522 91.0625 66.7723 83.4397 72.1582 70.8099C74.7138 64.8159 77.8952 57.3576 82.0899 49.137L82.5819 48.1735C85.1875 43.1107 88.125 37.3709 88.125 30.8438C88.125 15.1957 77.8026 2.9375 64.625 2.9375C59.5453 2.99542 54.6112 4.64202 50.5147 7.64631C49.4673 8.32293 48.2469 8.68285 47 8.68285C45.7531 8.68285 44.5327 8.32293 43.4853 7.64631C39.3888 4.64202 34.4547 2.99542 29.375 2.9375C16.1974 2.9375 5.875 15.1957 5.875 30.8438C5.875 37.3709 8.81984 43.1107 11.4181 48.175L11.9101 49.137ZM29.375 5.875C33.8116 5.92298 38.1221 7.3579 41.7022 9.97869C46.0388 12.8397 51.1475 14.3041 56.3413 14.1749C60.0097 14.1537 63.6504 13.5382 67.1219 12.3522L66.1922 9.56156C61.3509 11.2802 56.1391 11.6771 51.0934 10.7116C51.5177 10.5071 51.9206 10.2611 52.2963 9.97722C55.877 7.35667 60.188 5.92224 64.625 5.875C76.1562 5.875 85.1875 16.8422 85.1875 30.8438C85.1875 36.6615 82.4145 42.065 79.969 46.8326L79.4726 47.8005C75.2323 56.1136 72.0304 63.6233 69.4572 69.6569C64.7146 80.7812 61.5817 88.125 57.2812 88.125C54.0838 88.125 52.875 86.9853 52.875 74.9062C52.875 62.4777 52.0584 57.2812 47 57.2812C41.9416 57.2812 41.125 62.4777 41.125 74.9062C41.125 86.9853 39.9162 88.125 36.7188 88.125C32.4182 88.125 29.2854 80.7812 24.5428 69.6569C21.9696 63.6233 18.7677 56.1136 14.5274 47.8005L14.031 46.8326C11.5855 42.065 8.8125 36.6615 8.8125 30.8438C8.8125 16.8422 17.8438 5.875 29.375 5.875Z" fill="url(#paint0_linear)"/>
<path d="M30.8438 11.75V8.8125C24.7822 8.8125 12.9926 13.395 11.75 30.7395L14.6875 30.948C16.0329 12.0614 30.2445 11.75 30.8438 11.75Z" fill="url(#paint1_linear)"/>
<path d="M14.6875 33.7812H11.75V36.7188H14.6875V33.7812Z" fill="url(#paint2_linear)"/>
<path d="M82.2502 30.8438H79.3127C79.3127 30.9128 79.1732 37.9173 72.2422 47.6213L74.6333 49.328C82.1636 38.775 82.2502 31.1625 82.2502 30.8438Z" fill="url(#paint3_linear)"/>
<path d="M59.1872 30.2079H52.581V23.6017C52.581 22.9501 52.0528 22.422 51.4013 22.422H44.3232C43.6717 22.422 43.1435 22.9501 43.1435 23.6017V30.2079H36.5373C35.8858 30.2079 35.3577 30.736 35.3577 31.3876V38.4656C35.3577 39.1172 35.8858 39.6453 36.5373 39.6453H43.1435V46.2515C43.1435 46.903 43.6717 47.4312 44.3232 47.4312H51.4013C52.0528 47.4312 52.581 46.903 52.581 46.2515V39.6453H59.1872C59.8387 39.6453 60.3668 39.1172 60.3668 38.4656V31.3876C60.3668 30.736 59.8387 30.2079 59.1872 30.2079ZM58.0075 37.2858H51.4013C50.7498 37.2858 50.2216 37.814 50.2216 38.4655V45.0717H45.5029V38.4655C45.5029 37.814 44.9748 37.2858 44.3232 37.2858H37.717V32.5671H44.3232C44.9748 32.5671 45.5029 32.039 45.5029 31.3874V24.7812H50.2216V31.3874C50.2216 32.039 50.7498 32.5671 51.4013 32.5671H58.0075V37.2858Z" fill="url(#paint4_linear)"/>
<defs>
<linearGradient id="paint0_linear" x1="47" y1="2.9375" x2="47" y2="91.0625" gradientUnits="userSpaceOnUse">
<stop stop-color="#94E6F4"/>
<stop offset="1" stop-color="#51CEE4"/>
</linearGradient>
<linearGradient id="paint1_linear" x1="21.2969" y1="8.8125" x2="21.2969" y2="30.948" gradientUnits="userSpaceOnUse">
<stop stop-color="#94E6F4"/>
<stop offset="1" stop-color="#51CEE4"/>
</linearGradient>
<linearGradient id="paint2_linear" x1="13.2188" y1="33.7812" x2="13.2188" y2="36.7188" gradientUnits="userSpaceOnUse">
<stop stop-color="#94E6F4"/>
<stop offset="1" stop-color="#51CEE4"/>
</linearGradient>
<linearGradient id="paint3_linear" x1="77.2462" y1="30.8438" x2="77.2462" y2="49.328" gradientUnits="userSpaceOnUse">
<stop stop-color="#94E6F4"/>
<stop offset="1" stop-color="#51CEE4"/>
</linearGradient>
<linearGradient id="paint4_linear" x1="47.8623" y1="22.422" x2="47.8623" y2="47.4312" gradientUnits="userSpaceOnUse">
<stop stop-color="#94E6F4"/>
<stop offset="1" stop-color="#51CEE4"/>
</linearGradient>
</defs>
</svg>
