<?xml version="1.0" encoding="utf-8"?>
<!-- Generator: Adobe Illustrator 22.1.0, SVG Export Plug-In . SVG Version: 6.00 Build 0)  -->
<svg version="1.1" id="Layer_1" xmlns="http://www.w3.org/2000/svg" xmlns:xlink="http://www.w3.org/1999/xlink" x="0px" y="0px"
	 viewBox="322 210 157 154" style="enable-background:new 0 0 800 600;" xml:space="preserve">
<style type="text/css">
	.st0{opacity:0.95;fill:url(#SVGID_1_);}
	.st1{fill:url(#SVGID_2_);}
	.st2{opacity:0.1;}
	.st3{fill:url(#SVGID_3_);}
	.st4{fill:url(#SVGID_4_);}
</style>
<g>
	<g>
		<linearGradient id="SVGID_1_" gradientUnits="userSpaceOnUse" x1="328.6296" y1="215.4719" x2="472.5881" y2="359.4304">
			<stop  offset="0" style="stop-color:#32297C"/>
			<stop  offset="1" style="stop-color:#282761"/>
		</linearGradient>
		<rect x="327.6" y="216.5" class="st0" width="146.1" height="141.8"/>
		<g>
			
				<image style="overflow:visible;opacity:0.4;" width="167" height="164" xlink:href="9420F9EB.png"  transform="matrix(1 0 0 1 317.0239 206.0239)">
			</image>
			<g>
				<g>
					<linearGradient id="SVGID_2_" gradientUnits="userSpaceOnUse" x1="321.2583" y1="209.5913" x2="479.6292" y2="364.3177">
						<stop  offset="0" style="stop-color:#95C8FD"/>
						<stop  offset="1" style="stop-color:#73B4F4"/>
					</linearGradient>
					<path class="st1" d="M321.3,209.6v154.7h158.4V209.6H321.3z M467,352.1H334.2V222.2H467V352.1z"/>
				</g>
			</g>
		</g>
		<g>
			<g class="st2">
				<path d="M362.9,255.2c4.3-0.8,10.2-1.4,18.3-1.4c8.7,0,15.2,1.8,19.3,5.3c3.9,3.2,6.4,8.4,6.4,14.5c0,6.2-1.9,11.4-5.6,14.9
					c-4.8,4.8-12.2,7-20.7,7c-2.2,0-4.3-0.1-5.8-0.4v24.7h-11.8V255.2z M374.7,285.7c1.5,0.4,3.4,0.5,5.8,0.5
					c8.9,0,14.4-4.4,14.4-12c0-7.3-5.1-11.2-13.3-11.2c-3.3,0-5.6,0.3-6.9,0.6V285.7z"/>
			</g>
			<g>
				<linearGradient id="SVGID_3_" gradientUnits="userSpaceOnUse" x1="362.4667" y1="285.4873" x2="441.3204" y2="285.4873">
					<stop  offset="0" style="stop-color:#95C8FD"/>
					<stop  offset="1" style="stop-color:#73B4F4"/>
				</linearGradient>
				<path class="st3" d="M362.9,253.9c4.3-0.8,10.2-1.4,18.3-1.4c8.7,0,15.2,1.8,19.3,5.3c3.9,3.2,6.4,8.4,6.4,14.5
					c0,6.2-1.9,11.4-5.6,14.9c-4.8,4.8-12.2,7-20.7,7c-2.2,0-4.3-0.1-5.8-0.4v24.7h-11.8V253.9z M374.7,284.4
					c1.5,0.4,3.4,0.5,5.8,0.5c8.9,0,14.4-4.4,14.4-12c0-7.3-5.1-11.2-13.3-11.2c-3.3,0-5.6,0.3-6.9,0.6V284.4z"/>
			</g>
		</g>
		<g>
			<g class="st2">
				<path d="M410.6,308.8c2.7,1.7,7.9,3.4,12.1,3.4c5.2,0,7.6-2.1,7.6-5.2c0-3.2-1.9-4.9-7.8-6.9c-9.2-3.2-13.1-8.3-13-13.8
					c0-8.4,6.9-14.9,17.9-14.9c5.2,0,9.8,1.4,12.5,2.8l-2.3,8.4c-2-1.2-5.8-2.7-10-2.7c-4.3,0-6.6,2-6.6,5c0,3,2.2,4.5,8.3,6.6
					c8.5,3.1,12.5,7.5,12.6,14.5c0,8.5-6.7,14.9-19.2,14.9c-5.7,0-10.9-1.5-14.4-3.4L410.6,308.8z"/>
			</g>
			<g>
				<linearGradient id="SVGID_4_" gradientUnits="userSpaceOnUse" x1="362.4678" y1="294.8118" x2="441.3221" y2="294.8118">
					<stop  offset="0" style="stop-color:#95C8FD"/>
					<stop  offset="1" style="stop-color:#73B4F4"/>
				</linearGradient>
				<path class="st4" d="M410.6,307.5c2.7,1.7,7.9,3.4,12.1,3.4c5.2,0,7.6-2.1,7.6-5.2c0-3.2-1.9-4.9-7.8-6.9
					c-9.2-3.2-13.1-8.3-13-13.8c0-8.4,6.9-14.9,17.9-14.9c5.2,0,9.8,1.4,12.5,2.8l-2.3,8.4c-2-1.2-5.8-2.7-10-2.7
					c-4.3,0-6.6,2-6.6,5c0,3,2.2,4.5,8.3,6.6c8.5,3.1,12.5,7.5,12.6,14.5c0,8.5-6.7,14.9-19.2,14.9c-5.7,0-10.9-1.5-14.4-3.4
					L410.6,307.5z"/>
			</g>
		</g>
	</g>
</g>
</svg>
